<svg width="81" height="153" viewBox="0 0 81 153" fill="none" xmlns="http://www.w3.org/2000/svg"><path d="M75.545 16.837a1.898 1.898 0 001.052-.959c.22-.45.288-1.001.194-1.588-.34-2.098-.221-4.065-.527-6.132-.04-.234-.304-.5-.434-.757s-.158-.372-.101-.442c.701-.969-.023-2.293-.18-3.48-1.246-.484-.087-.621-.15-.93a42.157 42.157 0 00-1.401-5.644 364.922 364.922 0 00-1.971-5.47 42.167 42.167 0 00-3.693-7.173 45.724 45.724 0 00-5.987-7.525 67.374 67.374 0 00-5.37-4.816 35.818 35.818 0 00-6.245-4.317c-1.398-.867-2.865-1.48-4.32-1.803-.528-.139-1.028-.08-1.405.168-.378.247-.607.665-.646 1.175-.406 1.309-.568 2.752-.48 4.27.004.352.112.728.31 1.082.197.354.476.67.803.91.326.24.685.393 1.034.44.348.047.67-.014.926-.175.135-.054.332-.2.387-.146 1.53 1.476 3.34 2.45 4.938 3.873a300.585 300.585 0 014.642 4.205c3.628 3.47 6.62 7.593 8.706 12 .63 1.262.959 2.59 1.485 3.884.259.639.585 1.338 1.377.969.108-.056.399.212.604.32a1.437 1.437 0 00-.297.344c-.078.335-.408.761-.284.927.791 1.034.312 1.807.487 2.69.241.926.627 1.851 1.141 2.736.509.806.76 1.693.709 2.494-.047.2.174.418-.083.645-.223.22-.365.518-.41.867-.046.348.007.732.152 1.114.014.21.1.43.245.623.144.194.335.347.541.433.17.09.276.335.412.507a1.782 1.782 0 00-.643-.153c-.403.037-.411.772-.182.78.512-.041 1.119.093.584.524-.732.576-.78 1.077-.21 2.068.173.372.274.755.295 1.122a1.203 1.203 0 01-.099.424c-.834-.443-.404-.014-.433.46a16.72 16.72 0 01-.417 4.528c-.33.582-.415 1.333-.239 2.129.156.496-.44 1.02-.633 1.494-.192.474-.203.87.478 1.155 0 0 .112.624-.02.729-.513.392-1.191.621-.807 1.652 0 0-.291.26-.439.194-.617-.265-.576-.093-.353.464.087.21-.32.444-.44.72a22.876 22.876 0 01-3.308 5.224c-.165.376-.448.66-.816.82-.634.153-.716-.542-1.067-.841-.337-.256-.72-.391-1.067-.378-.412.02-.682.014-.967-.513a15.976 15.976 0 00-.667-.981l-.496.552a2.579 2.579 0 00-.853-.766c-.133-.071-.06-.032.028-.123l.162.299a1.688 1.688 0 01-.322.042s-.079-.13.12-.225c.198-.095.122-.524-.023-.601-1.232-.54-2.439-1.657-3.775-1.577-.305.026-.75-.397-1.124-.596-2.102-1.354-4.243-1.55-6.377-2.243-2.511-.748-5-1.11-7.382-1.072-.582-.008-1.646-1.099-1.807.119-.687-.026-1.347-.05-2.082-.102a14.262 14.262 0 00-2.12-.11 11.65 11.65 0 00-1.936.615c-.658.202-1.335.369-1.956.641-.62.273-1.317.755-2.063.986-.746.23-.76 1.276-1.7 1.466-.613.126-.625 1.398-1.16 1.891a7.006 7.006 0 00-1.681 1.966c-.18.368-.456.498-.155 1.07.301.574-.135.58-.42.755-.285.175-.383.536.283.94l-.084-.045c.06-.092.13-.176.208-.252 0 0 .181.096.26.225a.635.635 0 01-.36.085c-.794.205-.458 1.035-.559 1.583-.187 1.213-.107 2.536.236 3.885.113.561-.107 1.334.823 1.828.088.288.097.572.027.816-.231.642-.2 1.147.737 1.444.69.24.112.974.993 1.566a31.09 31.09 0 002.68 1.786l5.185 2.751c.247-.135.534-.206.844-.21.311-.004.64.06.966.187.326.128.645.317.936.557.292.24.552.525.764.84l.435.23c.058-.13.092-.277.101-.434a5.532 5.532 0 00-.09-1.302c.018-.078-.496-.263-.78-.326.056-.647.987-.855 1.726-.412.106.068.215.126.326.173l.472.25c-.044.19-.102.435-.26.476-.16.04-.432-.129-.634-.136a.278.278 0 00-.157.093.315.315 0 00-.069.176c.036.195.13.495.269.594.37.234.75.436 1.136.603.52.275.74-.786 1.448.14.707.928 1.139-.109 1.768.162.63.272.998-.084 1.372-.525.161-.165.84.245 1.284.318 1.32.162 1.323.15.776-1.23a2.255 2.255 0 01-.09-.549c.147.042.294.094.44.158.218.12.431.262.634.424.996.854 1.282.968 1.602.174.253-.618.513-.568 1.147-.257.183.068.365.091.532.068a.741.741 0 00.422-.2c.229-.456.432-.511 1.01-.254.363.192 1.149.083 1.144-.07-.035-1.134 1.024-.547 1.544-.798 1.277-.7 2.578-1.389 3.836-2.125a4.285 4.285 0 001.783-1.297c.441-.844 1.044-.286 1.386.171a35.142 35.142 0 012.247 2.771 14.336 14.336 0 002.378 2.966c.815.759 1.171 2.2 1.595 3.353.424 1.153.461 2.1.858 3.137.258.828.478 1.655.658 2.48.248.76.366 1.52.347 2.24-.022.501.668 1.269 1.044 1.932.08.153.152.309.217.466-1.065.2-.263 1.477-.593 2.192-.384.687-.458 1.583-.207 2.522.477 1.155-.544 1.691.09 2.88.272.52-.197 1.249-.33 1.88-.214.914-.354 1.867-.637 2.732-.284.865-.096 1.867-.969 2.406-.649.395-.041 1.984-1.12 2.239-.25 1.545-1.284 2.539-1.807 3.853-.847 2.057-2.482 3.42-3.61 5.228a29.143 29.143 0 01-4.368 4.7c-1.18 1.216-2.838 1.978-3.574 3.681-1.902.582-3.113 2.108-4.677 3.108-1.79 1.155-3.633 2.245-5.421 3.389-.91.583-1.981.867-2.872 1.484a44.456 44.456 0 01-6.425 3.208c-1.36.645-2.859 1.078-4.177 1.782-1.319.704-3.005 1.238-4.358 2.087-1.142.647-2.651.886-3.805 1.64a10.434 10.434 0 01-3.224 1.423c-1.12.313-2.191.721-3.204 1.219-1.074.471-2.282.757-3.287 1.34a10.01 10.01 0 00-2.74 1.616c-.02.089-.212.038-.322.042a1.133 1.133 0 01-.074-.44l.44-1.885c.187-.509.232-1.101.13-1.723-.142-.501.453-1.013.62-1.5.169-.487.26-1.115.393-1.684l.832-3.569c.105-.654.253-1.287.442-1.896.117-.502.633-.792.762-1.288.13-.495-.2-1.534.116-1.78.505-.359.26-1.115.69-1.388.553-.447-.573-1.558.328-1.87.419-.166.288-1.237.513-1.795.666-1.401.064-3.187.041-4.778.031-.134-.21-.438-.386-.556-1.035-.75-1.465-.652-2.182.096-.765.746-1.306 1.716-1.586 2.843a12.315 12.315 0 01-1.019 2.329c-.342.771-.056 1.988-1.045 2.328-.088.028-.062.268-.096.413-.766 2.588-1.523 5.194-2.329 7.775-.288.887-.779 1.654-1.08 2.535a12.33 12.33 0 01-.741 2.89c-.804 1.177-.751 2.872-1.46 3.988-1.196 1.871-1.32 4.387-1.942 6.588-.294 1.261-.622 2.666 1.364 3.82.217.115.305.613.525.892.224.235.465.451.719.645a5.615 5.615 0 01-.113-.737s.303-.077.382-.01c.245.23.419.535.664.766.6.569 1.506.473 1.96 1.378-.665-.352-1.353-.605-2.021-.884-.06-.032-.193.01-.186.039.007.029.034.319.104.369 1.27.848 2.546 1.664 3.803 2.506.975.655 1.916 1.393 2.916 1.998a17.618 17.618 0 013.139 1.741c1.504 1.412 3.255 1.827 4.741 2.967 2.763 2.13 5.737 3.357 8.609 5.018.326.174.58.772.862.846.281.075.436-.357.699-.493.016-.067.29.153.435.23.846.449.72.119.375-.502-.192-.34-.834-1.082.275-.594.254.134.56-.129.813.005.907.481 1.341.599.844-.705-.267-.718.373-.842 1.12-.258.746.584.974.655 1.094-.384a.342.342 0 01.152-.246c.401-.263.409-.296.104-.446a2.094 2.094 0 01-.752-.431 2.388 2.388 0 01-.556-.714c-.775.466-.736-.516-1.067-.842a2.954 2.954 0 00-.548-.504c-2.714-1.702-5.288-3.708-8.047-5.334a92.315 92.315 0 01-6.544-3.911 52.52 52.52 0 00-4.981-3.044c-.121-.064-.213-.251-.319-.382a1.09 1.09 0 01.373-.141c.27.006.6-.07.824.075 1.048.693 2.33.784 3.169 2.081.16.248.592.315.882.469a65.963 65.963 0 016.291 3.889c1.407 1.072 2.956 1.656 4.27 2.717a44.37 44.37 0 005.42 3.314 24.181 24.181 0 002.682 1.899c.85.376.546.102.58-.507.05-1.151-.949-1.756-1.429-2.262a22.94 22.94 0 00-3.318-2.312c-1.117-.743-2.229-1.508-3.36-2.246-1.132-.739-2.29-.902-3.132-2.125-.08-.118-.302-.161-.447-.238a1392.823 1392.823 0 01-8.362-4.912 6.814 6.814 0 01-1.14-.932c-.154-.156-.545-.752.013-.581 1.53.485 1.766-1.169 3.074-1.127.58.02 1.07-.459 1.727-.537.264-.023.368-.469.57-.813l-.023.101a2.514 2.514 0 01-.32-.32s.04-.167.145-.212c.12.148.207.316.253.486 1.614.006 3.012-.576 3.971-1.653l-.02.089a1.788 1.788 0 01-.322-.309s.038-.167.144-.211c.094.136.162.283.198.431.79.106 1.568.092 1.745-.842a.412.412 0 01.172-.189.483.483 0 01.265-.055c.669.015 1.29-.121 1.822-.4a3.152 3.152 0 001.271-1.217c.029-.123.156-.319.207-.304.592.314.892-.391 1.144-.308 1.533.475 1.92-.949 3.062-1.132 1.038-.345 2-.822 2.871-1.422.582-.28 1.173-.543 1.745-.841.572-.298.963-.579 1.462-.854.682-.365 1.676-.489 1.96-1.128.285-.638.911-.005 1.213-.309a2.856 2.856 0 011.094-.672 6.655 6.655 0 002.717-1.692 10.647 10.647 0 012.91-1.702 4.762 4.762 0 001.59-.998 4.458 4.458 0 012.373-1.499 12.271 12.271 0 003.004-1.877 43.56 43.56 0 004.718-4.101c1.026-.96 2.007-1.968 3.107-2.838a15.61 15.61 0 002.685-3.012c.452-.6 1.269-.668 1.615-1.512a14.312 14.312 0 012.437-3.23c.814-.985 1.532-2.083 2.338-3.096.52-.889.943-1.85 1.268-2.875.216-.461.57-.813.786-1.274a34.988 34.988 0 002.695-6.904c.328-1.405 1.425-2.44 1.336-4.04a34.35 34.35 0 01.442-4.052c.093-1.33-.008-2.762.067-4.075.077-2.849-.29-5.833-1.088-8.85a59.816 59.816 0 00-2.697-7.947 12.282 12.282 0 00-1.058-1.814c-.13-.195-.42-.349-.486-.534-.735-2.246-1.96-4.437-3.566-6.378a134.447 134.447 0 01-2.12-2.554 1.42 1.42 0 01-.193-.401 1.059 1.059 0 01-.042-.4c.27-1.35.998-2.431 2.077-3.084.288-.186.386-.547-.42-.875-.146-.077-.073-.039.028-.123l.164.288a.973.973 0 01-.323.042s-.066-.123.13-.207a19.695 19.695 0 002.263-2.133.399.399 0 00.094-.182.565.565 0 00.002-.23c-.174-.419-.39-.834-.59-1.254.348-.04.81.43.997-.26.877-3.295 2.201-6.239 2.732-9.68.093-.401.281-.915.094-1.278-.852-1.705-.335-2.584.466-3.512.428-.5-.343-.746-.992-.99-.133-.07-.06-.032.029-.123l.161.299c-.103.024-.21.038-.322.042 0 0-.04-.06.146-.16zm-6.778 27.91l-.228.28a2.022 2.022 0 01-.192-.69s-.223.081-.254.04c-.34-.37-.658-.761-.95-1.168-.084-.045-.022-.313.089-.38.11-.066.24-.16.352-.113a1.93 1.93 0 01.717.851c.072.17.114.341.124.506a1.06 1.06 0 01-.069.456l.46.244c.057-.092.126-.173.206-.242 0 0 .18.096.262.215a.515.515 0 01-.242.057.741.741 0 01-.275-.056zm3.75-42.362l-.412-.507c.088-.028.204-.117.25-.08.21.186.414.382.61.587-.124.009-.258 0-.562-.912-.285.061-.384.134-.454.085a4.869 4.869 0 01-.571-.404c.023-.1.062-.268.135-.23.253.136.487.297 1.004 1.461zM59.249 39.496l-.042.179a1.8 1.8 0 01-.322-.31s.039-.166.132-.217c.094-.05.15.23.231 1.689a4.68 4.68 0 01-.132-.772c.018-.136.048-.267.09-.39.123.177.349.372.366.532.017.16-.153.307-.324-.71zm-15.362 7.928c.382.053.557.058.724.097.144.063.285.138.424.224-.128.083-.265.26-.408.235-.144-.026-.36-.266.8.061l-.346-.497c.125-.009.267-.096.364-.045.184.136.358.291.517.462-.156.03-.274.068-2.075-.537zM36.094 37.8l.36.668.653.346c.448-.64 1.252-.363 1.974-.369 1.753.21 3.527.54 5.31.988.567.075 1.115-.06 1.731.442.193.103.193.103.104-.446a.448.448 0 01.04-.227.335.335 0 01.143-.152c.417-.155.792-.131.478-1-.314-.868.857.054 1.056-.392.041-.178-.014-.697.468-.203.295.308.56.624.839.947-.103.033-.212.15-.3.117-1.313-.597-.523.85-.951 1.112.145.077.318.268.447.237.346-.03.674-.27.999-.147.685.263 1.353.718 2.03 1.077.677.36 1.308.218 1.602.587.632.786 1.272-.04 1.794.751.16.248.543.526.53.695-.013.582-.45.3-.824.102l-1.813-.962a3.193 3.193 0 00-.646-.142c.133.186.291.355.468.498l1.583.84c.198.146.383.316.548.504l-.406.461.582.472a.967.967 0 01-.433.171c-.339-.004-.682-.048-1.03-.07a4.4 4.4 0 00-1.084.165c-2.16.996-4.773.9-7.252 1.165-1.868.115-3.828-.069-5.822-.545-2.684-.52-5.409-1.61-8-3.205-.507-.269-1.06-.462-1.32-1.151-.085-.22-.35-.424-.534-.622.205.109.495.263.631.147.688-.387 1.278-.939 2.004-1.255.691-.178 1.41-.3 2.149-.364.758-.162 1.448-.385 2.269-.526-.253-.477-.48-.962-.68-1.451.26-1.115.558-1.233 1.31-.557.073.038.03.279.036.432-.98-.52-.82.254-.998.724-.018.078-.154.08-.252.092a.638.638 0 01-.126-.218c-.015-.284.005-.486.333.264zm-1.905 14.58a11.622 11.622 0 01-1.1-.584c-.096-.05-.167-.39-.117-.488a.59.59 0 01.389-.27 7.664 7.664 0 002.132 1.633s.088.147.123.228c.036.081-.23.116-.33.076-.362-.193-.737-.392-4.21-1.746l-1.56-.827c-.12-.064-.215-.24-.323-.36.105-.044.224-.144.32-.093l3.119 1.655c.072.038.116.2.173.305-.127.02-.276.079-.4.026-.422-.287-.87-.524 1.784.445zm20.22-11.466l-2.043-1.084a4.957 4.957 0 01-.709-.627c.248-.104.512-.183.788-.234.333-.02.68 0 1.032.059 0 0 .186.25.161.299-.26.589.176.82.671 1.083l2.49 1.32c.121.065.199.256.29.392-.137.003-.287.061-.408-.003-.761-.404-1.51-.801-2.778-2.878l-.206-.109a.974.974 0 01.22-.246s.17.09.25.208c.082.118-.169.085.242 1.82zm6.53-4.707c.372.386.777.801 1.154 1.226.191.227.495.614.46.708a.672.672 0 01-.243.278.747.747 0 01-.365.114c-.412-.007-.854-.171-1.25-.463-1.627-1.703-3.564-2.191-5.414-3.286-.532-.282-1.442-.163-1.664-.494-.806-1.204-1.705-1.017-2.623-1.392a36.228 36.228 0 00-6.535-2.026c-.133-.07-.317-.331-.492-.512.18-.13.398-.427.531-.357a5.15 5.15 0 001.535.72 3.646 3.646 0 001.505.104c.136-.014.283.004.43.055.148.05.293.13.426.236.759.59 1.453.294 2.188.635.218.115.462.057.685.15.223.093 3.125 1.219 3.34 1.283.534.158 1.016-.276 1.663.62.401.55 1.353.717 1.867 1.253.178.237.4.438.646.583.245.146.504.23.75.245a8.67 8.67 0 011.442.34l-.036-.02zM40.017 47.364c.293.256.544.464.803.69a2.463 2.463 0 01-.89.266 15.27 15.27 0 01-1.482-.285c-1.348-.094-2.755-.514-4.114-1.23a2.217 2.217 0 00-1.087-.464c-1.057.166-1.478-.358-1.62-1.437.033-.145-.353-.412-.55-.617.215.03.434.092.65.182l2.478 1.315a16.1 16.1 0 002.384.788c1.213.33 2.294.528 3.428.792zm-7.701.7c1.112.59 1.28.68 1.115 1.044-.489.931-.541-.826-1.003-.532 0 0-.145-.078-.197-.03-.588.365-.853-.364-.856-.642-.024-.652.473.013.726.034.253.022.142.088.215.127zM7.98 139.059c-.289-.391-1.049-.218-1.313-1.01.508.27 1.042.427 1.545.657.306.143.609.304.907.481 0 0 .079.242.092.362.013.12-.126.071-.186.039-.298-.12-.6-.28-1.047-.518l.002-.011zm38.7-170.683c-.18-.158-.286-.227-.29-.267-.005-.04.054-.234.064-.279.24-.084.497-.132.767-.144.085.045.254.134.386.267-.031.134-.075.324-.253.33-.212.06-.438.09-.674.093zm-5.593 82.727c-.41.009-.798.041-1.202.027a1.06 1.06 0 01-.135-.41c.028-.123.083-.357.158-.33.359.103.718.243 1.07.418 0 0 .083.231.108.295zM71.255 9.548l.463-.531c.164.287.508.733.44.848-.067.114-.483.27-.74.383l-.163-.7zM8.559 137.397l.46.645a1.867 1.867 0 01-.633-.198 3.618 3.618 0 01-.568-.59c.257.062.464.109.74.143zm25.927-87.63l-.512-.484.759-.4c.058.157.175.357.142.44a1.67 1.67 0 01-.341.47l-.048-.025zm8.437-19.008a3.029 3.029 0 01-.695-.106c-.097-.05-.19-.238-.294-.369l.891-.153.098.628zm-2.556 22.618a21.864 21.864 0 00-.494-.5l.71-.426c.049.14.165.339.12.415-.089.19-.202.36-.336.511zm24.86-7.6l-.511-.485.758-.4c.047.15.178.345.145.428-.112.17-.243.322-.392.456zm7.542-26.528c.151-.007.342-.069.41-.008.182.215.334.453.447.701l-.361.21-.496-.903zm1.704.265c-.276-.272-.39-.37-.512-.485l.758-.399c.062.145.178.345.145.428a2.04 2.04 0 01-.5.398l.109.058zm-41.4 18.137c-.134-.184-.315-.342-.29-.391.07-.171.158-.33.26-.476.097.113.268.254.255.31a2.18 2.18 0 01-.324.455l.099.102zm10.23.215c.142.15.303.336.451.515-.124.01-.276.079-.383.01a3.474 3.474 0 01-.523-.491l.456-.034zm30.14-7.82l-.368.419a1.546 1.546 0 01-.207-.511c.023-.1.139-.19.225-.269l.35.362zm4.847 41.26l.424.048c-.026.112.112.335.064.423a1.153 1.153 0 01-.376.214l-.112-.686zm-54.643-29.17l.123.229a1.336 1.336 0 01-.333-.027s-.076-.14-.126-.217l.336.015zM5.411 135.752l-.266-.317s.152-.069.189-.05c.098.09.189.188.27.294l-.193.073zm23.694-91.333l-.172-.254a.95.95 0 01.333.026s.079.13.114.211l-.275.017zm9.376-7.307l-.123-.228c.108-.006.22.003.333.026 0 0 .076.14.126.218l-.336-.016zm2.549-7.32c.06.032.152-.07.185-.04.1.086.191.181.274.284-.013.056-.142.087-.176.057a1.97 1.97 0 01-.283-.3zm4.522 7.75l-.09-.197c.108-.006.22.003.334.026l.114.211c.038.07-.261.012-.358-.04zM42.08 53.547l-.206.067a2.547 2.547 0 01-.068-.35s.108-.055.167-.074l.107.357zm10.479-16.872l.12.24a1.336 1.336 0 01-.333-.027s-.076-.14-.126-.218l.339.005zm-.866 15.368l-.191.062a1.724 1.724 0 01-.08-.356l.176-.057.095.351zm8.551-11.34s-.133-.184-.114-.212c.062-.08.133-.151.213-.213 0 0 .12.189.111.222a.883.883 0 01-.21.202zm.683 6.627l-.222.196s-.132-.195-.112-.222a.631.631 0 01.21-.202l.124.228zm.988 1.239l-.121-.24c.107-.001.218.011.33.038 0 0 .08.13.13.206l-.34-.004zm.952.982l-.265-.317s.152-.07.188-.05c.097.09.188.19.27.294l-.193.073zM73.325 8.416l-.12-.24c.106-.002.217.011.33.038 0 0 .078.13.116.2l-.326.002zm-1.772 9.349l.22-.185s.133.184.113.211a.883.883 0 01-.21.202l-.123-.228zm1.067-.85l-.19.061a1.73 1.73 0 01-.08-.355s.117-.038.178-.069l.092.363zm1.683-3.256l-.266-.316s.152-.07.188-.05c.099.089.19.188.271.293l-.193.073zM73.22 24.89l-.253-.371c.06.032.152-.07.186-.04.101.082.194.178.273.283l-.206.129zm-1.61 9.06l-.256-.299s.143-.087.176-.057c.105.09.2.19.284.3l-.204.056zm-1.42 10.174s-.122-.177-.102-.204a.619.619 0 01.198-.208s.133.183.114.21a.883.883 0 01-.203.169l-.007.033zm-1.553 5.555s.152-.07.188-.05c.098.09.19.188.27.294 0 0-.139.076-.175.057a2.997 2.997 0 01-.276-.334l-.007.033z" fill="#00F"/><path d="M34.083 54.291l.625.056c-.275-.25-.56-.49-.852-.715-.133-.07-.306-.025-.467-.035l.694.694zm-2.228-.756l.563.036c-.091-.136-.193-.34-.292-.38a2.114 2.114 0 00-.615-.101l.344.445zM50.675 41.2c.207.152.42.29.637.414.06.032.148-.11.232-.178A5.438 5.438 0 0050.98 41c-.058-.043-.16.103-.305.202zm2.812 3.26l-.236-.326c-.02.09-.151.183-.132.218.098.113.206.217.322.309l.046-.201z" fill="#00F"/></svg>