<svg width="49" height="49" viewBox="0 0 49 49" fill="none" xmlns="http://www.w3.org/2000/svg"><path d="M29.316 2.271L47.617.664c.107 1.857.24 3.786.401 5.786.107 1.714.214 3.678.322 5.893.106 2.143.16 4.357.16 6.642 0 7.786-1.364 14.072-4.094 18.858-2.675 4.714-7.117 8.321-13.324 10.821l-2.167-8.678c1.873-.358 3.505-1.036 4.896-2.036a14.635 14.635 0 003.452-3.75c.91-1.429 1.578-3 2.006-4.715.482-1.785.723-3.535.723-5.25H29.316V2.271zm-28.415 0L19.283.664c.107 1.857.24 3.786.4 5.786.108 1.714.188 3.678.242 5.893.107 2.143.16 4.357.16 6.642 0 7.786-1.364 14.072-4.093 18.858-2.676 4.714-7.117 8.321-13.325 10.821L.5 39.986c1.873-.358 3.478-1.036 4.816-2.036a14.635 14.635 0 003.452-3.75c.91-1.5 1.578-3.107 2.006-4.822.428-1.714.642-3.428.642-5.143H.901V2.271z" fill="#00F"/></svg>