<svg width="762" height="692" viewBox="0 0 762 692" fill="none" xmlns="http://www.w3.org/2000/svg"><g opacity=".2"><path d="M694.784 495.349c0 47.194-8.929 93.926-26.277 137.528-17.348 43.602-42.775 83.219-74.83 116.591-32.055 33.371-70.11 59.843-111.991 77.903-41.882 18.061-86.77 27.356-132.103 27.356-45.332 0-90.22-9.295-132.102-27.356-41.882-18.06-79.936-44.532-111.991-77.903-32.055-33.372-57.482-72.989-74.83-116.591-17.348-43.602-26.277-90.334-26.277-137.528H54.84c0 40.296 7.623 80.198 22.436 117.427 14.812 37.228 36.523 71.055 63.892 99.549 27.37 28.494 59.862 51.096 95.622 66.517 35.761 15.421 74.088 23.358 112.794 23.358 38.707 0 77.034-7.937 112.794-23.358 35.76-15.421 68.253-38.023 95.623-66.517 27.369-28.494 49.08-62.321 63.892-99.549 14.812-37.229 22.436-77.131 22.436-117.427h50.456z" fill="#023363"/><path d="M4.617 504.652c-.606-47.19 7.721-94.039 24.508-137.871 16.786-43.833 41.702-83.791 73.325-117.593 31.623-33.802 69.335-60.785 110.981-79.411 41.646-18.625 86.411-28.527 131.739-29.14 45.328-.612 90.332 8.075 132.442 25.568 42.11 17.493 80.502 43.447 112.983 76.383 32.48 32.935 58.414 72.205 76.321 115.569 17.907 43.363 27.435 89.97 28.041 137.161l-50.451.682c-.517-40.293-8.653-80.088-23.942-117.113-15.29-37.026-37.433-70.556-65.166-98.678-27.734-28.121-60.514-50.282-96.469-65.218-35.955-14.936-74.381-22.354-113.084-21.83-38.703.523-76.925 8.977-112.484 24.88-35.559 15.903-67.758 38.943-94.759 67.804-27.002 28.862-48.276 62.979-62.609 100.405-14.332 37.426-21.443 77.428-20.925 117.72l-50.451.682z" fill="#023363"/><path d="M895.239 282.102c0 37.046-7.009 73.73-20.626 107.956-13.618 34.226-33.578 65.325-58.74 91.521-25.162 26.195-55.034 46.975-87.91 61.152-32.875 14.177-68.112 21.473-103.696 21.473-35.585 0-70.821-7.296-103.697-21.473-32.876-14.177-62.747-34.957-87.91-61.152-25.162-26.196-45.121-57.295-58.739-91.521-13.618-34.226-20.627-70.91-20.627-107.956H392.9c0 31.632 5.985 62.953 17.612 92.177 11.627 29.224 28.67 55.777 50.154 78.144 21.484 22.366 46.99 40.109 75.061 52.214 28.07 12.104 58.156 18.335 88.54 18.335 30.383 0 60.469-6.231 88.54-18.335 28.071-12.105 53.576-29.848 75.061-52.214 21.484-22.367 38.526-48.92 50.153-78.144 11.628-29.224 17.612-60.545 17.612-92.177h39.606z" fill="gold"/><path d="M353.478 289.405c-.476-37.043 6.061-73.818 19.238-108.225s32.735-65.773 57.558-92.307c24.824-26.533 54.426-47.715 87.117-62.335 32.691-14.62 67.83-22.393 103.412-22.874 35.581-.481 70.908 6.338 103.963 20.07 33.055 13.73 63.191 34.105 88.688 59.958 25.496 25.853 45.854 56.679 59.91 90.718 14.056 34.039 21.536 70.625 22.012 107.668l-39.603.535c-.406-31.628-6.793-62.866-18.794-91.93-12.002-29.064-29.384-55.385-51.154-77.459-21.77-22.075-47.501-39.47-75.725-51.195-28.224-11.724-58.387-17.547-88.768-17.136-30.381.41-60.384 7.047-88.297 19.53-27.912 12.484-53.188 30.57-74.383 53.225-21.195 22.655-37.895 49.437-49.146 78.815-11.25 29.378-16.832 60.778-16.425 92.407l-39.603.535z" fill="gold"/></g></svg>