<svg width="32" height="32" viewBox="0 0 32 32" fill="none" xmlns="http://www.w3.org/2000/svg"><path d="M1.363 16.62a2.217 2.217 0 01-1.195-2.892L7.12 1.368A2.203 2.203 0 0110 .168a2.217 2.217 0 011.195 2.893L4.244 15.42a2.203 2.203 0 01-2.881 1.199zm7.957 5.687a2.22 2.22 0 01.143-3.128L28.308 1.917a2.2 2.2 0 013.116.143 2.22 2.22 0 01-.143 3.128L12.436 22.45a2.2 2.2 0 01-3.116-.143zm5.592 5.41a2.216 2.216 0 00-1.275 2.858 2.203 2.203 0 002.847 1.279l12.667-4.313a2.216 2.216 0 001.275-2.857 2.203 2.203 0 00-2.847-1.28c-1.138.436-12.667 4.313-12.667 4.313z" fill="#FFB307"/></svg>